# xmcd
#
# Track frame offsets:
#	182
#	15712
#	31215
#	49155
#	71572
#	89485
#	113550
#	129210
#	143877
#	161692
#
# Disc length: 2389 seconds
#
# Revision: 0
# Processed by: cddbd v1.4PL0 Copyright (c) Steve Scherf et al.
# Submitted via: AudioConverter v4.05 Copyright (c) Dennis Rebentrost
#
DISCID=7f09530a
DTITLE=Silvio Rodriguez - Sue_o con serpientes
DYEAR=1980
DGENRE=Classical
TTITLE0=Como esperando abril
TTITLE1=Playa Giron
TTITLE2=Dias y Flores
TTITLE3=En el claro de la luna
TTITLE4=El dia feliz esta llegando
TTITLE5=Sue_o con serpientes
TTITLE6=Yo digo que las estrellas
TTITLE7=La verguenza
TTITLE8=Esta canci_n
TTITLE9=Vamos a andar
EXTD=
EXTT0=
EXTT1=
EXTT2=
EXTT3=
EXTT4=
EXTT5=
EXTT6=
EXTT7=
EXTT8=
EXTT9=
PLAYORDER=
